<svg width="65" height="65" viewBox="0 0 65 65" fill="none" xmlns="http://www.w3.org/2000/svg">
<path d="M63.8623 38.1359C63.0366 36.8902 61.7567 36.0325 60.2704 35.767C58.7841 35.4811 57.2771 35.8283 56.0591 36.7064L45.5496 44.2663C45.4299 43.5883 45.1285 42.9267 44.6433 42.3018C43.5492 40.8723 41.7739 40.035 39.916 40.035H27.5093C26.1675 40.035 24.8876 39.7696 23.6903 39.2386C22.3072 38.6362 19.9683 37.85 17.2496 37.9031V34.0925H18.4923C20.4679 36.5083 23.488 38.0542 26.8694 38.0542C29.9845 38.0542 32.9138 36.7452 34.9451 34.4743C36.7617 36.833 39.4908 38.3401 42.5377 38.3401C48.0082 38.3401 52.4465 33.5411 52.4259 27.6189C52.4259 25.0377 51.563 21.223 50.2625 17.8903C51.1728 17.2205 51.7653 16.1524 51.7653 14.9578C51.7653 13.1607 50.4317 11.6455 48.6771 11.3555L50.4441 5.93164C50.6919 5.13522 50.4235 4.33879 49.7423 3.78742C48.8133 3.05225 47.3476 2.95015 46.2742 3.54236L43.0538 5.33943C42.7441 5.5028 42.2694 5.5028 41.9597 5.33943L38.7393 3.54236C37.6452 2.92973 36.2002 3.03183 35.2712 3.78742C34.5694 4.35921 34.3217 5.15564 34.5694 5.93164L36.3385 11.3657C34.6272 11.6822 33.3101 13.1812 33.3101 14.9578C33.3101 16.1524 33.9005 17.2184 34.8088 17.8882C34.59 18.4417 34.3856 19.0073 34.1957 19.5771C32.2243 17.7514 29.6294 16.7324 26.8694 16.7324C25.6721 16.7324 24.5202 16.9285 23.4426 17.2879V15.0191H26.0437C26.3739 15.0191 26.7042 14.8353 26.89 14.5494C27.0758 14.2635 27.0965 13.8959 26.952 13.5896L21.275 1.43898C21.1099 1.09182 20.7589 0.867188 20.3667 0.867188C19.9745 0.867188 19.6236 1.09182 19.4584 1.43898L13.7815 13.5896C13.637 13.8959 13.6576 14.2635 13.8434 14.5494C14.0292 14.8353 14.3389 15.0191 14.6898 15.0191H17.2909V22.5177C17.0555 22.9711 16.8512 23.4428 16.6798 23.9288L15.082 20.5124C14.9169 20.1652 14.5659 19.9406 14.1737 19.9406C13.7815 19.9406 13.4305 20.1652 13.2654 20.5124L7.58847 32.663C7.44397 32.9693 7.46461 33.3369 7.6504 33.6228C7.83619 33.9087 8.14584 34.0925 8.49678 34.0925H11.0978V39.6348C9.72506 40.4414 8.3564 41.5809 7.04968 43.1513C6.88453 43.0696 6.71319 42.9961 6.53566 42.9348C5.44156 42.5673 4.26489 42.6285 3.21207 43.139H3.19143C1.04452 44.1805 0.136209 46.7536 1.18902 48.8978L7.85683 62.4371C8.37292 63.4581 9.26058 64.2546 10.3547 64.6221C10.8088 64.7855 11.3043 64.8672 11.7791 64.8672C12.4397 64.8672 13.0796 64.7242 13.6783 64.4179H13.6989C15.594 63.499 16.5229 61.3854 15.9883 59.427L17.4147 58.9042C17.9102 58.7204 18.4262 58.6387 18.963 58.6796C39.0903 60.1499 43.7557 57.9852 44.2305 57.7402C44.2511 57.7198 44.2924 57.6994 44.313 57.6789L62.3554 45.5487C63.8623 44.5481 64.75 42.8736 64.75 41.0765C64.75 40.035 64.4404 39.014 63.8623 38.1359ZM37.7485 5.27816L40.9688 7.07523C41.8978 7.58576 43.1364 7.58576 44.0653 7.07523L47.2857 5.27816C47.7811 5.01269 48.3591 5.2169 48.5037 5.35985L46.5756 11.3024H38.4586L36.5305 5.35985C36.675 5.2169 37.2737 5.01269 37.7485 5.27816ZM37.0259 13.2833H37.6122C37.6618 13.2874 37.7113 13.2853 37.7608 13.2833H48.0908C48.9991 13.2833 49.7629 14.0389 49.7629 14.9374C49.7629 15.8359 49.0197 16.5915 48.0908 16.5915H37.0259C36.1176 16.5915 35.3538 15.8359 35.3538 14.9374C35.3538 14.0389 36.097 13.2833 37.0259 13.2833ZM37.0053 18.6132H48.0701C48.1754 18.6132 48.2786 18.6071 48.3798 18.5969C49.6081 21.7152 50.4028 25.2603 50.4028 27.6189C50.4028 32.4179 46.8728 36.3388 42.5377 36.3388C38.2026 36.3388 34.6726 32.4383 34.6726 27.6189C34.6726 25.2603 35.4674 21.7172 36.6956 18.5969C36.7968 18.6071 36.9 18.6132 37.0053 18.6132ZM33.5331 21.8091C32.9736 23.9472 32.6495 26.02 32.6495 27.6189C32.6495 29.4446 33.0748 31.1661 33.8221 32.6732C32.1685 34.8072 29.6088 36.0733 26.8694 36.0733C24.0392 36.0733 21.5207 34.7398 19.9208 32.6752C19.8651 32.5547 19.7846 32.4486 19.6876 32.3607C18.7049 30.966 18.1228 29.2731 18.1166 27.4474C18.129 27.3841 18.1372 27.3188 18.1372 27.2534C18.1372 27.2024 18.131 27.1533 18.1249 27.1064C18.1723 25.7606 18.5315 24.4925 19.1322 23.3693C19.1735 23.3101 19.2086 23.2488 19.2355 23.1814C20.7362 20.543 23.5912 18.7561 26.8673 18.7561C29.4581 18.7561 31.8651 19.865 33.5331 21.8091ZM16.2793 13.0178L20.3667 4.2571L24.4541 13.0178H22.4311C21.8737 13.0178 21.4195 13.4671 21.4195 14.0184V18.2027C20.6516 18.65 19.9456 19.187 19.3139 19.8017V14.0184C19.3139 13.4671 18.8598 13.0178 18.3024 13.0178H16.2793ZM12.13 32.0912H10.107L14.1944 23.3305L16.0935 27.4188C16.0977 29.0954 16.494 30.6801 17.198 32.0912H16.238C15.6807 32.0912 15.2265 32.5404 15.2265 33.0918V38.0991C14.5432 38.2216 13.8455 38.4054 13.1415 38.6648V33.0918C13.1415 32.5404 12.6874 32.0912 12.13 32.0912ZM12.8319 62.6209H12.8112C12.2332 62.8863 11.6139 62.9272 11.0153 62.723C10.4166 62.5188 9.94182 62.0899 9.67345 61.5385L3.00564 47.9993C2.44827 46.8557 2.92307 45.4671 4.07909 44.9157H4.09974C4.43003 44.7727 4.78097 44.6911 5.13191 44.6911C5.37963 44.6911 5.64799 44.7319 5.89571 44.8136C6.12485 44.8912 6.33542 45.0035 6.52327 45.1403C6.57075 45.1914 6.62236 45.2404 6.68016 45.2833C6.69461 45.2935 6.71113 45.2996 6.72558 45.3098C6.93614 45.5059 7.11161 45.7366 7.23753 45.998L13.7154 59.1493C13.7175 59.1554 13.7175 59.1615 13.7196 59.1697C13.7464 59.2452 13.7835 59.3147 13.8269 59.378L13.9053 59.5373C14.4834 60.6808 13.9879 62.0695 12.8319 62.6209ZM61.22 43.9151L43.2396 55.984C42.7648 56.1678 37.7278 58.0261 19.1075 56.6783C18.2817 56.617 17.4767 56.7191 16.7128 57.005L15.1667 57.5727L9.03351 45.1199C8.91171 44.881 8.76927 44.6563 8.61032 44.444C9.82208 42.992 11.0834 41.9607 12.3447 41.2501C12.514 41.2092 12.6667 41.1255 12.7927 41.0112C13.9157 40.4455 15.0366 40.1249 16.1163 39.9819C16.1575 39.986 16.1968 39.9942 16.238 39.9942C16.3598 39.9942 16.4754 39.9697 16.5828 39.9309C19.0724 39.7103 21.3204 40.3863 22.8852 41.0765C24.3509 41.7096 25.8991 42.0363 27.53 42.0363H39.9367C41.1753 42.0363 42.3313 42.6081 43.0538 43.527C43.6731 44.3235 43.7557 45.1199 43.3222 45.998C43.2189 46.2226 43.0744 46.4473 42.9093 46.6719C42.1868 47.6317 40.9895 48.2035 39.7509 48.2035H29.2847C28.7273 48.2035 28.2731 48.6528 28.2731 49.2041C28.2731 49.7555 28.7273 50.2048 29.2847 50.2048H39.7509C41.6294 50.2048 43.4254 49.3471 44.5195 47.8768C44.7011 47.6378 44.858 47.3887 44.9963 47.1436L57.2358 38.3401C58.0203 37.7887 58.9699 37.5845 59.8988 37.7479C60.8484 37.9112 61.6535 38.4422 62.1696 39.2386C62.5412 39.79 62.727 40.4434 62.727 41.0969C62.727 42.2201 62.1696 43.282 61.22 43.9151Z" fill="url(#paint0_linear_1_440)"/>
<path d="M42.2085 28.3504C42.2683 28.3688 42.3303 28.3811 42.3943 28.3872C42.4252 28.3913 42.4541 28.3954 42.481 28.3954C42.4851 28.3954 42.4913 28.3974 42.4954 28.3974C42.8876 28.3974 43.2799 28.8263 43.2799 29.2551C43.2799 29.6288 43.0032 29.931 42.6399 29.9801C42.6048 29.976 42.5718 29.9698 42.5367 29.9698C42.5057 29.9698 42.4768 29.976 42.4459 29.978C42.2353 29.9515 42.0433 29.8412 41.9174 29.6635C41.6077 29.1938 40.9678 29.0917 40.5136 29.3981C40.0388 29.7044 39.9356 30.3374 40.2453 30.7867C40.5632 31.24 41.0132 31.5811 41.5252 31.7792V32.5429C41.5252 33.0943 41.9793 33.5436 42.5367 33.5436C43.0941 33.5436 43.5482 33.0943 43.5482 32.5429V31.7792C44.5742 31.381 45.3029 30.3966 45.3029 29.2551C45.3029 27.795 44.1717 26.5534 42.7658 26.4104C42.7328 26.4023 42.6977 26.3961 42.6626 26.39C42.6337 26.3859 42.6028 26.3839 42.5718 26.3818C42.5532 26.3798 42.5346 26.3757 42.514 26.3757C42.1651 26.3553 41.8183 25.953 41.8142 25.5691C41.8204 25.1647 42.1465 24.8441 42.5553 24.8441C42.803 24.8441 43.0094 24.9462 43.1539 25.13C43.5049 25.5589 44.1242 25.6406 44.5783 25.3138C45.0118 24.9667 45.0944 24.354 44.7641 23.9048C44.44 23.4861 44.0189 23.1818 43.5462 23.0042V22.2506C43.5462 21.6993 43.092 21.25 42.5346 21.25C41.9773 21.25 41.5231 21.6993 41.5231 22.2506V23.0205C40.5075 23.4249 39.7891 24.4071 39.7891 25.5589C39.7932 26.9312 40.8894 28.1585 42.2085 28.3504Z" fill="url(#paint1_linear_1_440)"/>
<path d="M26.6103 28.3626C26.6949 28.383 26.7816 28.3973 26.8683 28.3973C26.9096 28.3973 26.9468 28.3973 26.9839 28.3952C27.3679 28.4789 27.7147 28.8976 27.7147 29.3366C27.7147 29.8063 27.3431 30.1739 26.8683 30.1739C26.5793 30.1739 26.3316 30.031 26.1664 29.8063C25.8568 29.3366 25.2168 29.2345 24.7627 29.5409C24.2879 29.8472 24.1847 30.4802 24.4943 30.9295C24.8329 31.4196 25.3118 31.7851 25.8568 31.9914V32.8287C25.8568 33.38 26.3109 33.8293 26.8683 33.8293C27.4257 33.8293 27.8798 33.38 27.8798 32.8287V31.9914C28.9657 31.5871 29.7336 30.5558 29.7171 29.3366C29.7171 27.7438 28.4166 26.396 26.8683 26.3756C26.8477 26.3756 26.8064 26.3756 26.7857 26.3756C26.7713 26.3756 26.7589 26.3797 26.7465 26.3817C26.3853 26.3082 26.0219 25.8691 26.0219 25.477C26.0219 25.0073 26.3935 24.6398 26.8683 24.6398C27.1367 24.6398 27.3844 24.7623 27.5495 24.9665C27.9005 25.3954 28.5198 25.477 28.9739 25.1503C29.4075 24.8031 29.49 24.1905 29.1597 23.7412C28.8274 23.2981 28.3835 22.9754 27.8798 22.7916V21.985C27.8798 21.4336 27.4257 20.9844 26.8683 20.9844C26.3109 20.9844 25.8568 21.4336 25.8568 21.985V22.81C24.7813 23.2185 24.0195 24.2456 24.0195 25.4566C24.0195 26.9147 25.1983 28.2216 26.6103 28.3626Z" fill="url(#paint2_linear_1_440)"/>
<defs>
<linearGradient id="paint0_linear_1_440" x1="15.6373" y1="5.24129" x2="32.75" y2="64.8672" gradientUnits="userSpaceOnUse">
<stop stop-color="#00CDF3"/>
<stop offset="1" stop-color="#5987FF"/>
</linearGradient>
<linearGradient id="paint1_linear_1_440" x1="41.0717" y1="22.0902" x2="46.6998" y2="30.8856" gradientUnits="userSpaceOnUse">
<stop stop-color="#00CDF3"/>
<stop offset="1" stop-color="#5987FF"/>
</linearGradient>
<linearGradient id="paint2_linear_1_440" x1="25.3449" y1="21.8623" x2="31.2524" y2="30.9929" gradientUnits="userSpaceOnUse">
<stop stop-color="#00CDF3"/>
<stop offset="1" stop-color="#5987FF"/>
</linearGradient>
</defs>
</svg>
