<svg width="69" height="79" viewBox="0 0 69 79" fill="none" xmlns="http://www.w3.org/2000/svg">
<path d="M34.2501 2.90625L37.3783 9.11409L44.3124 10.1391L39.3114 15.0007L40.4688 21.842L34.2501 18.639L28.031 21.842L29.1885 15.0007L24.1875 10.1391L31.122 9.11409L34.2501 2.90625Z" stroke="url(#paint0_linear_1_405)" stroke-width="2" stroke-miterlimit="10"/>
<path d="M16.0061 14.1562L18.2329 18.5752L23.1685 19.3047L19.6088 22.7654L20.4329 27.6349L16.0061 25.355L11.5793 27.6349L12.4034 22.7654L8.84375 19.3047L13.7794 18.5752L16.0061 14.1562Z" stroke="url(#paint1_linear_1_405)" stroke-width="2" stroke-miterlimit="10"/>
<path d="M7.80171 28.7344L9.52757 32.1593L13.3534 32.7249L10.5944 35.4074L11.2328 39.1821L7.80171 37.4146L4.37058 39.1821L5.00906 35.4074L2.25 32.7249L6.07585 32.1593L7.80171 28.7344Z" stroke="url(#paint2_linear_1_405)" stroke-width="2" stroke-miterlimit="10"/>
<path d="M52.4905 14.1562L50.2637 18.5752L45.3281 19.3047L48.8878 22.7654L48.0637 27.6349L52.4905 25.355L56.9173 27.6349L56.0932 22.7654L59.6529 19.3047L54.7172 18.5752L52.4905 14.1562Z" stroke="url(#paint3_linear_1_405)" stroke-width="2" stroke-miterlimit="10"/>
<path d="M60.6962 28.7344L58.9704 32.1593L55.1445 32.7249L57.9036 35.4074L57.2651 39.1821L60.6962 37.4146L64.1274 39.1821L63.4889 35.4074L66.2483 32.7249L62.4221 32.1593L60.6962 28.7344Z" stroke="url(#paint4_linear_1_405)" stroke-width="2" stroke-miterlimit="10"/>
<path d="M50.5995 71.8688L42.6769 70.2271L38.1526 76.868L34.3008 67.4814L37.3567 60.3253C38.2653 60.3531 39.3231 61.0227 40.1432 60.7594C41.0713 60.4614 41.5354 59.0612 42.3927 58.6282C43.1161 58.2627 44.2237 58.5149 45.0239 58.2812L50.5995 71.8688Z" stroke="url(#paint5_linear_1_405)" stroke-width="2" stroke-miterlimit="10"/>
<path d="M25.8473 70.2026L30.2766 76.9056L34.3007 67.4826L37.3566 60.3265C37.2548 60.3233 37.1547 60.3283 37.0572 60.3433C36.1143 60.4898 35.2353 61.6788 34.2509 61.6788C33.2664 61.6788 32.3874 60.4898 31.4445 60.3433C31.4189 60.3393 31.3932 60.3361 31.3672 60.3336C30.4127 60.2375 29.2463 61.0457 28.3586 60.7606C27.4305 60.4626 26.9664 59.0624 26.1091 58.6294C25.4305 58.2864 24.4139 58.4875 23.6299 58.3203L17.9023 71.7332L25.8473 70.2026ZM25.8473 70.2026L25.865 70.199L25.8375 70.1876L25.8473 70.2026Z" stroke="url(#paint6_linear_1_405)" stroke-width="2" stroke-miterlimit="10"/>
<path d="M25.8359 70.1875L25.8641 70.1992L25.8459 70.2028L25.8359 70.1875Z" stroke="url(#paint7_linear_1_405)" stroke-width="2" stroke-miterlimit="10"/>
<path d="M51.9636 45.5975C52.112 44.6642 53.3138 43.795 53.3138 42.821C53.3138 41.8467 52.112 40.9774 51.9636 40.0442C51.8115 39.0866 52.6818 37.8937 52.3857 36.9915C52.0842 36.0729 50.6692 35.6142 50.2316 34.766C49.7892 33.9088 50.242 32.5069 49.674 31.7344C49.103 30.9584 47.6144 30.9537 46.9301 30.2767C46.2457 29.5996 46.241 28.1265 45.4566 27.5617C44.6759 26.9997 43.2588 27.448 42.3924 27.0104C41.5351 26.5773 41.071 25.1775 40.1429 24.8792C39.2311 24.5862 38.0252 25.4472 37.057 25.2965C36.1141 25.15 35.2351 23.9609 34.2507 23.9609C33.2662 23.9609 32.3872 25.15 31.4443 25.2965C30.4761 25.4472 29.2703 24.5862 28.3584 24.8792C27.4303 25.1775 26.9662 26.5773 26.1089 27.0104C25.2425 27.448 23.8255 26.9997 23.0447 27.5617C22.2603 28.1265 22.2556 29.5996 21.5713 30.2767C20.8869 30.9537 19.3983 30.9584 18.8274 31.7344C18.2593 32.5069 18.7122 33.9088 18.2698 34.766C17.8321 35.6142 16.4172 36.0729 16.1156 36.9915C15.8195 37.8937 16.6898 39.0866 16.5378 40.0442C16.3894 40.9774 15.1875 41.8467 15.1875 42.821C15.1875 43.795 16.3894 44.6646 16.5378 45.5975C16.6898 46.555 15.8195 47.748 16.1156 48.6505C16.4172 49.5687 17.8321 50.0274 18.2698 50.8756C18.7122 51.7328 18.2593 53.1351 18.8274 53.9072C19.3983 54.6832 20.8869 54.6879 21.5713 55.3649C22.2556 56.042 22.2603 57.5151 23.0447 58.08C23.2137 58.2018 23.413 58.2761 23.6297 58.3222C24.4137 58.4894 25.4303 58.2883 26.1089 58.6312C26.9662 59.0643 27.4303 60.4645 28.3584 60.7625C29.2461 61.0476 30.4125 60.2394 31.367 60.3355C31.393 60.338 31.4187 60.3412 31.4443 60.3451C32.3872 60.4916 33.2662 61.6807 34.2507 61.6807C35.2351 61.6807 36.1141 60.4916 37.057 60.3451C37.1545 60.3301 37.2546 60.3251 37.3564 60.3284C38.265 60.3562 39.3228 61.0258 40.1429 60.7625C41.071 60.4645 41.5351 59.0643 42.3924 58.6312C43.1158 58.2657 44.2234 58.518 45.0236 58.2843C45.1818 58.2379 45.3277 58.1728 45.4566 58.08C46.241 57.5151 46.2457 56.0424 46.9301 55.3649C47.6144 54.6879 49.103 54.6832 49.674 53.9072C50.242 53.1351 49.7892 51.7328 50.2316 50.8756C50.6692 50.0274 52.0842 49.5687 52.3857 48.6505C52.6818 47.748 51.8115 46.555 51.9636 45.5975ZM34.2507 56.907C26.3873 56.907 20.013 50.6005 20.013 42.821C20.013 35.0414 26.3873 28.7346 34.2507 28.7346C42.114 28.7346 48.4884 35.0414 48.4884 42.821C48.4884 50.6005 42.114 56.907 34.2507 56.907Z" stroke="url(#paint8_linear_1_405)" stroke-width="2" stroke-miterlimit="10"/>
<path d="M34.2533 28.7344C26.39 28.7344 20.0156 35.0412 20.0156 42.8207C20.0156 50.6003 26.39 56.9067 34.2533 56.9067C42.1166 56.9067 48.491 50.6003 48.491 42.8207C48.491 35.0412 42.1166 28.7344 34.2533 28.7344ZM34.2533 55.5805C27.1303 55.5805 21.3558 49.8678 21.3558 42.8207C21.3558 35.7733 27.1303 30.0606 34.2533 30.0606C41.3763 30.0606 47.1508 35.7733 47.1508 42.8207C47.1508 49.8678 41.3763 55.5805 34.2533 55.5805Z" stroke="url(#paint9_linear_1_405)" stroke-width="2" stroke-miterlimit="10"/>
<path d="M34.2533 28.7344C26.39 28.7344 20.0156 35.0412 20.0156 42.8207C20.0156 50.6003 26.39 56.9067 34.2533 56.9067C42.1166 56.9067 48.491 50.6003 48.491 42.8207C48.491 35.0412 42.1166 28.7344 34.2533 28.7344ZM34.2533 55.5805C27.1303 55.5805 21.3558 49.8678 21.3558 42.8207C21.3558 35.7733 27.1303 30.0606 34.2533 30.0606C41.3763 30.0606 47.1508 35.7733 47.1508 42.8207C47.1508 49.8678 41.3763 55.5805 34.2533 55.5805Z" stroke="url(#paint10_linear_1_405)" stroke-width="2" stroke-miterlimit="10"/>
<path d="M34.2491 30.0625C27.1261 30.0625 21.3516 35.7751 21.3516 42.8226C21.3516 49.8697 27.1261 55.5824 34.2491 55.5824C41.3721 55.5824 47.1466 49.8697 47.1466 42.8226C47.1466 35.7751 41.3721 30.0625 34.2491 30.0625ZM32.8591 49.3527L31.8497 50.6022L30.5644 49.5349L26.19 45.9024L29.03 43.0927L31.4756 45.9749L38.6477 35.0427L42.3082 37.6555L32.8591 49.3527Z" stroke="url(#paint11_linear_1_405)" stroke-width="2" stroke-miterlimit="10"/>
<path d="M42.3095 37.6519L32.8605 49.3491L31.8511 50.5985L30.5658 49.5313L26.1914 45.8988L29.0314 43.0891L31.477 45.9713L38.6491 35.0391L42.3095 37.6519Z" stroke="url(#paint12_linear_1_405)" stroke-width="2" stroke-miterlimit="10"/>
<defs>
<linearGradient id="paint0_linear_1_405" x1="28.8688" y1="4.20042" x2="33.6748" y2="21.9974" gradientUnits="userSpaceOnUse">
<stop stop-color="#00CDF3"/>
<stop offset="1" stop-color="#5987FF"/>
</linearGradient>
<linearGradient id="paint1_linear_1_405" x1="12.1759" y1="15.0775" x2="15.5968" y2="27.7454" gradientUnits="userSpaceOnUse">
<stop stop-color="#00CDF3"/>
<stop offset="1" stop-color="#5987FF"/>
</linearGradient>
<linearGradient id="paint2_linear_1_405" x1="4.83281" y1="29.4484" x2="7.48456" y2="39.2678" gradientUnits="userSpaceOnUse">
<stop stop-color="#00CDF3"/>
<stop offset="1" stop-color="#5987FF"/>
</linearGradient>
<linearGradient id="paint3_linear_1_405" x1="48.6603" y1="15.0775" x2="52.0812" y2="27.7454" gradientUnits="userSpaceOnUse">
<stop stop-color="#00CDF3"/>
<stop offset="1" stop-color="#5987FF"/>
</linearGradient>
<linearGradient id="paint4_linear_1_405" x1="57.7274" y1="29.4484" x2="60.3791" y2="39.2678" gradientUnits="userSpaceOnUse">
<stop stop-color="#00CDF3"/>
<stop offset="1" stop-color="#5987FF"/>
</linearGradient>
<linearGradient id="paint5_linear_1_405" x1="38.0921" y1="59.5516" x2="43.6329" y2="76.4809" gradientUnits="userSpaceOnUse">
<stop stop-color="#00CDF3"/>
<stop offset="1" stop-color="#5987FF"/>
</linearGradient>
<linearGradient id="paint6_linear_1_405" x1="22.4277" y1="59.5905" x2="27.2069" y2="77.0215" gradientUnits="userSpaceOnUse">
<stop stop-color="#00CDF3"/>
<stop offset="1" stop-color="#5987FF"/>
</linearGradient>
<linearGradient id="paint7_linear_1_405" x1="25.8425" y1="70.1885" x2="25.8448" y2="70.2036" gradientUnits="userSpaceOnUse">
<stop stop-color="#00CDF3"/>
<stop offset="1" stop-color="#5987FF"/>
</linearGradient>
<linearGradient id="paint8_linear_1_405" x1="24.0562" y1="26.5389" x2="34.0505" y2="61.7375" gradientUnits="userSpaceOnUse">
<stop stop-color="#00CDF3"/>
<stop offset="1" stop-color="#5987FF"/>
</linearGradient>
<linearGradient id="paint9_linear_1_405" x1="26.6394" y1="30.6598" x2="34.1042" y2="56.9491" gradientUnits="userSpaceOnUse">
<stop stop-color="#00CDF3"/>
<stop offset="1" stop-color="#5987FF"/>
</linearGradient>
<linearGradient id="paint10_linear_1_405" x1="26.6394" y1="30.6598" x2="34.1042" y2="56.9491" gradientUnits="userSpaceOnUse">
<stop stop-color="#00CDF3"/>
<stop offset="1" stop-color="#5987FF"/>
</linearGradient>
<linearGradient id="paint11_linear_1_405" x1="27.3519" y1="31.8067" x2="34.1136" y2="55.6208" gradientUnits="userSpaceOnUse">
<stop stop-color="#00CDF3"/>
<stop offset="1" stop-color="#5987FF"/>
</linearGradient>
<linearGradient id="paint12_linear_1_405" x1="29.9407" y1="36.1025" x2="33.9778" y2="50.674" gradientUnits="userSpaceOnUse">
<stop stop-color="#00CDF3"/>
<stop offset="1" stop-color="#5987FF"/>
</linearGradient>
</defs>
</svg>
