<svg width="65" height="65" viewBox="0 0 65 65" fill="none" xmlns="http://www.w3.org/2000/svg">
<mask id="path-1-inside-1_1_425" fill="white">
<path fill-rule="evenodd" clip-rule="evenodd" d="M36.4432 38.5895C37.0832 38.6809 37.684 38.485 38.1411 38.0279C38.5983 37.5707 38.7942 36.9699 38.7028 36.3299L38.0628 32.1372C38.0236 31.8499 38.1281 31.5887 38.3632 31.4189L41.7722 28.9111C42.2946 28.5323 42.5819 27.9576 42.5819 27.3176C42.5819 26.6776 42.2946 26.103 41.7722 25.7242L38.3632 23.2164C38.1281 23.0466 38.0236 22.7854 38.0628 22.4981L38.7028 18.3054C38.7942 17.6654 38.5983 17.0646 38.1411 16.6074C37.684 16.1503 37.0832 15.9544 36.4432 16.0458L32.2505 16.6858C31.9632 16.725 31.7019 16.6205 31.5322 16.3854L29.0375 12.9895C28.6587 12.467 28.084 12.1797 27.444 12.1797C26.804 12.1797 26.2293 12.467 25.8505 12.9895L23.3428 16.3985C23.173 16.6336 22.9117 16.7381 22.6244 16.6989L18.4317 16.0589C17.7917 15.9674 17.1909 16.1634 16.7338 16.6205C16.2766 17.0776 16.0807 17.6785 16.1722 18.3185L16.8122 22.5111C16.8513 22.7985 16.7468 23.0597 16.5117 23.2295L13.1028 25.7242C12.5803 26.103 12.293 26.6776 12.293 27.3176C12.293 27.9576 12.5803 28.5323 13.1028 28.9111L16.5117 31.4189C16.7468 31.5887 16.8513 31.8499 16.8122 32.1372L16.1722 36.3299C16.0807 36.9699 16.2766 37.5707 16.7338 38.0279C17.1909 38.485 17.7917 38.6809 18.4317 38.5895L22.4938 37.9625V52.1862C22.4938 52.4213 22.6375 52.6434 22.8464 52.7479C23.0554 52.8523 23.3166 52.8132 23.4995 52.6695L27.7313 49.2213L31.3493 52.6303C31.4668 52.7348 31.6236 52.8001 31.7673 52.8001C31.8456 52.8001 31.937 52.787 32.0154 52.7479C32.2375 52.6564 32.3811 52.4344 32.3811 52.1862V37.9625L36.4432 38.5895ZM18.2489 37.3748C18.0007 37.414 17.7787 37.3356 17.6089 37.1658C17.426 36.983 17.3607 36.774 17.3999 36.5258L18.0399 32.3332C18.1575 31.5887 17.857 30.8834 17.2562 30.4393L13.8473 27.9315C13.6383 27.7879 13.5468 27.5789 13.5468 27.3307C13.5468 27.0825 13.6513 26.8736 13.8473 26.7299L17.2562 24.2221C17.857 23.7781 18.1575 23.0727 18.0399 22.3283L17.3999 18.1356C17.3607 17.8874 17.4391 17.6654 17.6089 17.4956C17.7917 17.3127 18.0007 17.2474 18.2489 17.2866L22.4415 17.9266C23.186 18.0442 23.8913 17.7438 24.3354 17.143L26.8432 13.734C26.9868 13.525 27.1958 13.4336 27.444 13.4336C27.6922 13.4336 27.9011 13.5381 28.0448 13.734L30.5526 17.143C30.9966 17.7438 31.7019 18.0442 32.4464 17.9266L36.6391 17.2866C36.8873 17.2474 37.1093 17.3258 37.2791 17.4956C37.4619 17.6785 37.5273 17.8874 37.4881 18.1356L36.8481 22.3283C36.7305 23.0727 37.0309 23.7781 37.6317 24.2221L41.0407 26.7299C41.2497 26.8736 41.3411 27.0825 41.3411 27.3307C41.3411 27.5789 41.2366 27.7879 41.0407 27.9315L37.6317 30.4393C37.0309 30.8834 36.7305 31.5887 36.8481 32.3332L37.4881 36.5258C37.5273 36.774 37.4489 36.996 37.2791 37.1658C37.0962 37.3487 36.8873 37.414 36.6391 37.3748L32.4464 36.7348C32.1591 36.6956 31.8848 36.7087 31.6105 36.787C31.6105 36.787 31.6105 36.787 31.5975 36.787C31.5844 36.787 31.5844 36.787 31.5713 36.8001C31.5322 36.8132 31.506 36.8262 31.4668 36.8393C31.4538 36.8393 31.4277 36.8523 31.4146 36.8523C31.3885 36.8654 31.3493 36.8785 31.3232 36.8915C31.3101 36.9046 31.284 36.9046 31.2709 36.9177C31.2448 36.9307 31.2187 36.9438 31.1795 36.9568C31.1664 36.9699 31.1403 36.983 31.1273 36.983C31.0881 37.0091 31.0489 37.0221 31.0228 37.0483C31.0097 37.0613 30.9836 37.0744 30.9705 37.0874C30.9444 37.1005 30.9313 37.1136 30.9052 37.1397C30.8922 37.1528 30.866 37.1658 30.853 37.1919C30.8268 37.205 30.8138 37.2311 30.8007 37.2442C30.7877 37.2572 30.7615 37.2703 30.7485 37.2964C30.7224 37.3225 30.7093 37.3356 30.6832 37.3617C30.6701 37.3748 30.657 37.3879 30.644 37.4009C30.6048 37.4401 30.5787 37.4793 30.5526 37.5185L28.0448 40.9274C27.9011 41.1364 27.6922 41.2279 27.444 41.2279C27.1958 41.2279 26.9868 41.1234 26.8432 40.9274L24.3354 37.5185C24.3093 37.4793 24.2701 37.4401 24.244 37.4009C24.2309 37.3879 24.2309 37.3879 24.2179 37.3748C24.1917 37.3356 24.1656 37.3095 24.1264 37.2834L24.1134 37.2703C24.0742 37.2311 24.035 37.205 23.9958 37.1658C23.9828 37.1658 23.9828 37.1528 23.9697 37.1528C23.9436 37.1266 23.9044 37.1005 23.8783 37.0744C23.8652 37.0744 23.8652 37.0613 23.8522 37.0483C23.813 37.0221 23.7738 36.996 23.7346 36.9699C23.7346 36.9699 23.7346 36.9699 23.7215 36.9699C23.6824 36.9438 23.6432 36.9307 23.604 36.9046C23.5909 36.9046 23.5779 36.8915 23.5779 36.8915C23.5387 36.8654 23.4864 36.8523 23.4473 36.8393C23.395 36.8262 23.3558 36.8001 23.3036 36.787C23.3036 36.787 23.3036 36.787 23.2905 36.787H23.2775C23.1077 36.7348 22.9379 36.7217 22.755 36.7217C22.6505 36.7217 22.546 36.7348 22.4415 36.7479L18.2489 37.3748ZM31.1534 50.7626L28.1754 47.9544C27.9534 47.7454 27.6007 47.7323 27.3656 47.9283L23.7215 50.8932V38.7723L25.8375 41.6589C25.8636 41.6981 25.8897 41.7242 25.9158 41.7503C25.9681 41.8156 26.0203 41.8679 26.0726 41.9201C26.1248 41.9723 26.1901 42.0246 26.2424 42.0638C26.5819 42.3119 26.9868 42.4556 27.4309 42.4556C27.5877 42.4556 27.7444 42.4425 27.9011 42.4034C28.3452 42.2989 28.7371 42.0376 29.0244 41.6458L31.1403 38.7593L31.1534 50.7626ZM35.1371 27.3176C35.1371 23.0728 31.6889 19.6115 27.4309 19.6115C23.173 19.6115 19.7248 23.0597 19.7248 27.3176C19.7248 31.5756 23.173 35.0238 27.4309 35.0238C31.6889 35.0238 35.1371 31.5625 35.1371 27.3176ZM20.9656 27.3176C20.9656 23.7519 23.8652 20.8523 27.4309 20.8523C30.9966 20.8523 33.8962 23.7519 33.8962 27.3176C33.8962 30.8834 30.9966 33.783 27.4309 33.783C23.8783 33.796 20.9656 30.8964 20.9656 27.3176ZM51.4766 41.3976C51.4766 40.6401 50.8889 40.0132 50.1575 40.0132H48.6685L44.7762 35.1805C44.737 35.1413 44.6979 35.1021 44.6587 35.063C43.5746 34.2793 42.373 34.3054 41.6154 35.1413C40.7795 36.0556 41.1583 37.205 41.4587 38.1193L42.0856 40.0132H37.1224C36.1297 40.0132 35.3722 40.8491 35.3722 41.9723C35.3722 42.5601 35.5811 43.0825 35.9338 43.4352C35.6726 43.7748 35.5289 44.1927 35.5289 44.663C35.5289 45.1985 35.7379 45.7209 36.1036 46.0866C35.8293 46.4262 35.6726 46.8703 35.6726 47.3405C35.6726 47.9674 35.9599 48.5421 36.3909 48.8948C36.1689 49.2213 36.0513 49.6132 36.0513 50.0181C36.0513 51.1021 36.8742 51.9772 37.893 51.9772H50.1444C50.8758 51.9772 51.4636 51.3503 51.4636 50.5927L51.4766 41.3976ZM50.2489 50.5927C50.2489 50.6842 50.1966 50.7495 50.1575 50.7495H37.906C37.5795 50.7495 37.2922 50.423 37.2922 50.0181C37.2922 49.7307 37.4489 49.4695 37.6709 49.3519C38.0236 49.3258 39.5387 49.2997 39.7738 49.2997C40.1134 49.2997 40.3877 49.0254 40.3877 48.6858C40.3877 48.3462 40.1134 48.0719 39.7738 48.0719H37.5273C37.2007 48.0719 36.9134 47.7454 36.9134 47.3405C36.9134 47.014 37.1093 46.7266 37.3705 46.6352C37.6056 46.6221 38.5591 46.6221 39.1991 46.6091H39.7868C40.1264 46.6091 40.4007 46.3348 40.4007 45.9952C40.4007 45.6556 40.1264 45.3813 39.7868 45.3813C39.4995 45.3813 38.8726 45.3813 38.2979 45.3944H37.3836C37.2007 45.3944 37.0701 45.303 36.9917 45.2246C36.8481 45.0809 36.7697 44.885 36.7697 44.663C36.7697 44.2711 37.044 43.9315 37.3836 43.9315L39.7346 43.9185C40.0742 43.9185 40.3485 43.6442 40.3485 43.3046C40.3485 42.965 40.0742 42.6907 39.7346 42.6907C39.5387 42.6907 37.3444 42.6907 37.0179 42.6777C36.7436 42.6123 36.613 42.2728 36.613 41.9593C36.613 41.5936 36.7958 41.2279 37.1224 41.2279H42.9346C43.1305 41.2279 43.3134 41.1364 43.4309 40.9666C43.5485 40.8099 43.5746 40.6009 43.5224 40.4181L42.6342 37.7144C42.3468 36.8654 42.2032 36.3299 42.5297 35.9642C42.9607 35.4809 43.5746 35.7944 43.875 36.0034L47.7934 40.8621C48.0807 41.2148 48.4987 41.2148 48.6554 41.2148H50.1444C50.1705 41.2148 50.2358 41.2801 50.2358 41.3715L50.2489 50.5927ZM30.5395 26.0376L28.7501 25.8287L28.0056 24.196C27.9011 23.974 27.6922 23.8303 27.444 23.8303C27.2089 23.8303 26.9868 23.974 26.8824 24.196L26.1379 25.8287L24.3485 26.0376C24.1134 26.0638 23.9044 26.2336 23.8391 26.4556C23.7607 26.6907 23.826 26.9389 24.0089 27.0956L25.3281 28.3103L24.9754 30.0736C24.9232 30.3087 25.0277 30.5568 25.2105 30.6874C25.4064 30.8311 25.6677 30.8442 25.8766 30.7266L27.444 29.8385L29.0113 30.7266C29.1028 30.7789 29.2073 30.805 29.3117 30.805C29.4424 30.805 29.5599 30.7658 29.6775 30.6874C29.8734 30.5438 29.9648 30.3087 29.9256 30.0736L29.573 28.3103L30.8922 27.0956C31.075 26.9389 31.1403 26.6776 31.0619 26.4556C30.9705 26.2205 30.7746 26.0638 30.5395 26.0376ZM28.4628 27.6442C28.306 27.7879 28.2277 28.0099 28.2799 28.2189L28.4366 29.0025L27.7444 28.6107C27.5615 28.5062 27.3264 28.5062 27.1436 28.6107L26.4513 29.0025L26.6081 28.2189C26.6473 28.0099 26.5819 27.7879 26.4252 27.6442L25.8375 27.1087L26.6342 27.0172C26.8432 26.9911 27.0391 26.8605 27.1305 26.6646L27.4571 25.9332L27.7836 26.6646C27.875 26.8605 28.0579 26.9911 28.2799 27.0172L29.0766 27.1087L28.4628 27.6442Z"/>
</mask>
<path fill-rule="evenodd" clip-rule="evenodd" d="M36.4432 38.5895C37.0832 38.6809 37.684 38.485 38.1411 38.0279C38.5983 37.5707 38.7942 36.9699 38.7028 36.3299L38.0628 32.1372C38.0236 31.8499 38.1281 31.5887 38.3632 31.4189L41.7722 28.9111C42.2946 28.5323 42.5819 27.9576 42.5819 27.3176C42.5819 26.6776 42.2946 26.103 41.7722 25.7242L38.3632 23.2164C38.1281 23.0466 38.0236 22.7854 38.0628 22.4981L38.7028 18.3054C38.7942 17.6654 38.5983 17.0646 38.1411 16.6074C37.684 16.1503 37.0832 15.9544 36.4432 16.0458L32.2505 16.6858C31.9632 16.725 31.7019 16.6205 31.5322 16.3854L29.0375 12.9895C28.6587 12.467 28.084 12.1797 27.444 12.1797C26.804 12.1797 26.2293 12.467 25.8505 12.9895L23.3428 16.3985C23.173 16.6336 22.9117 16.7381 22.6244 16.6989L18.4317 16.0589C17.7917 15.9674 17.1909 16.1634 16.7338 16.6205C16.2766 17.0776 16.0807 17.6785 16.1722 18.3185L16.8122 22.5111C16.8513 22.7985 16.7468 23.0597 16.5117 23.2295L13.1028 25.7242C12.5803 26.103 12.293 26.6776 12.293 27.3176C12.293 27.9576 12.5803 28.5323 13.1028 28.9111L16.5117 31.4189C16.7468 31.5887 16.8513 31.8499 16.8122 32.1372L16.1722 36.3299C16.0807 36.9699 16.2766 37.5707 16.7338 38.0279C17.1909 38.485 17.7917 38.6809 18.4317 38.5895L22.4938 37.9625V52.1862C22.4938 52.4213 22.6375 52.6434 22.8464 52.7479C23.0554 52.8523 23.3166 52.8132 23.4995 52.6695L27.7313 49.2213L31.3493 52.6303C31.4668 52.7348 31.6236 52.8001 31.7673 52.8001C31.8456 52.8001 31.937 52.787 32.0154 52.7479C32.2375 52.6564 32.3811 52.4344 32.3811 52.1862V37.9625L36.4432 38.5895ZM18.2489 37.3748C18.0007 37.414 17.7787 37.3356 17.6089 37.1658C17.426 36.983 17.3607 36.774 17.3999 36.5258L18.0399 32.3332C18.1575 31.5887 17.857 30.8834 17.2562 30.4393L13.8473 27.9315C13.6383 27.7879 13.5468 27.5789 13.5468 27.3307C13.5468 27.0825 13.6513 26.8736 13.8473 26.7299L17.2562 24.2221C17.857 23.7781 18.1575 23.0727 18.0399 22.3283L17.3999 18.1356C17.3607 17.8874 17.4391 17.6654 17.6089 17.4956C17.7917 17.3127 18.0007 17.2474 18.2489 17.2866L22.4415 17.9266C23.186 18.0442 23.8913 17.7438 24.3354 17.143L26.8432 13.734C26.9868 13.525 27.1958 13.4336 27.444 13.4336C27.6922 13.4336 27.9011 13.5381 28.0448 13.734L30.5526 17.143C30.9966 17.7438 31.7019 18.0442 32.4464 17.9266L36.6391 17.2866C36.8873 17.2474 37.1093 17.3258 37.2791 17.4956C37.4619 17.6785 37.5273 17.8874 37.4881 18.1356L36.8481 22.3283C36.7305 23.0727 37.0309 23.7781 37.6317 24.2221L41.0407 26.7299C41.2497 26.8736 41.3411 27.0825 41.3411 27.3307C41.3411 27.5789 41.2366 27.7879 41.0407 27.9315L37.6317 30.4393C37.0309 30.8834 36.7305 31.5887 36.8481 32.3332L37.4881 36.5258C37.5273 36.774 37.4489 36.996 37.2791 37.1658C37.0962 37.3487 36.8873 37.414 36.6391 37.3748L32.4464 36.7348C32.1591 36.6956 31.8848 36.7087 31.6105 36.787C31.6105 36.787 31.6105 36.787 31.5975 36.787C31.5844 36.787 31.5844 36.787 31.5713 36.8001C31.5322 36.8132 31.506 36.8262 31.4668 36.8393C31.4538 36.8393 31.4277 36.8523 31.4146 36.8523C31.3885 36.8654 31.3493 36.8785 31.3232 36.8915C31.3101 36.9046 31.284 36.9046 31.2709 36.9177C31.2448 36.9307 31.2187 36.9438 31.1795 36.9568C31.1664 36.9699 31.1403 36.983 31.1273 36.983C31.0881 37.0091 31.0489 37.0221 31.0228 37.0483C31.0097 37.0613 30.9836 37.0744 30.9705 37.0874C30.9444 37.1005 30.9313 37.1136 30.9052 37.1397C30.8922 37.1528 30.866 37.1658 30.853 37.1919C30.8268 37.205 30.8138 37.2311 30.8007 37.2442C30.7877 37.2572 30.7615 37.2703 30.7485 37.2964C30.7224 37.3225 30.7093 37.3356 30.6832 37.3617C30.6701 37.3748 30.657 37.3879 30.644 37.4009C30.6048 37.4401 30.5787 37.4793 30.5526 37.5185L28.0448 40.9274C27.9011 41.1364 27.6922 41.2279 27.444 41.2279C27.1958 41.2279 26.9868 41.1234 26.8432 40.9274L24.3354 37.5185C24.3093 37.4793 24.2701 37.4401 24.244 37.4009C24.2309 37.3879 24.2309 37.3879 24.2179 37.3748C24.1917 37.3356 24.1656 37.3095 24.1264 37.2834L24.1134 37.2703C24.0742 37.2311 24.035 37.205 23.9958 37.1658C23.9828 37.1658 23.9828 37.1528 23.9697 37.1528C23.9436 37.1266 23.9044 37.1005 23.8783 37.0744C23.8652 37.0744 23.8652 37.0613 23.8522 37.0483C23.813 37.0221 23.7738 36.996 23.7346 36.9699C23.7346 36.9699 23.7346 36.9699 23.7215 36.9699C23.6824 36.9438 23.6432 36.9307 23.604 36.9046C23.5909 36.9046 23.5779 36.8915 23.5779 36.8915C23.5387 36.8654 23.4864 36.8523 23.4473 36.8393C23.395 36.8262 23.3558 36.8001 23.3036 36.787C23.3036 36.787 23.3036 36.787 23.2905 36.787H23.2775C23.1077 36.7348 22.9379 36.7217 22.755 36.7217C22.6505 36.7217 22.546 36.7348 22.4415 36.7479L18.2489 37.3748ZM31.1534 50.7626L28.1754 47.9544C27.9534 47.7454 27.6007 47.7323 27.3656 47.9283L23.7215 50.8932V38.7723L25.8375 41.6589C25.8636 41.6981 25.8897 41.7242 25.9158 41.7503C25.9681 41.8156 26.0203 41.8679 26.0726 41.9201C26.1248 41.9723 26.1901 42.0246 26.2424 42.0638C26.5819 42.3119 26.9868 42.4556 27.4309 42.4556C27.5877 42.4556 27.7444 42.4425 27.9011 42.4034C28.3452 42.2989 28.7371 42.0376 29.0244 41.6458L31.1403 38.7593L31.1534 50.7626ZM35.1371 27.3176C35.1371 23.0728 31.6889 19.6115 27.4309 19.6115C23.173 19.6115 19.7248 23.0597 19.7248 27.3176C19.7248 31.5756 23.173 35.0238 27.4309 35.0238C31.6889 35.0238 35.1371 31.5625 35.1371 27.3176ZM20.9656 27.3176C20.9656 23.7519 23.8652 20.8523 27.4309 20.8523C30.9966 20.8523 33.8962 23.7519 33.8962 27.3176C33.8962 30.8834 30.9966 33.783 27.4309 33.783C23.8783 33.796 20.9656 30.8964 20.9656 27.3176ZM51.4766 41.3976C51.4766 40.6401 50.8889 40.0132 50.1575 40.0132H48.6685L44.7762 35.1805C44.737 35.1413 44.6979 35.1021 44.6587 35.063C43.5746 34.2793 42.373 34.3054 41.6154 35.1413C40.7795 36.0556 41.1583 37.205 41.4587 38.1193L42.0856 40.0132H37.1224C36.1297 40.0132 35.3722 40.8491 35.3722 41.9723C35.3722 42.5601 35.5811 43.0825 35.9338 43.4352C35.6726 43.7748 35.5289 44.1927 35.5289 44.663C35.5289 45.1985 35.7379 45.7209 36.1036 46.0866C35.8293 46.4262 35.6726 46.8703 35.6726 47.3405C35.6726 47.9674 35.9599 48.5421 36.3909 48.8948C36.1689 49.2213 36.0513 49.6132 36.0513 50.0181C36.0513 51.1021 36.8742 51.9772 37.893 51.9772H50.1444C50.8758 51.9772 51.4636 51.3503 51.4636 50.5927L51.4766 41.3976ZM50.2489 50.5927C50.2489 50.6842 50.1966 50.7495 50.1575 50.7495H37.906C37.5795 50.7495 37.2922 50.423 37.2922 50.0181C37.2922 49.7307 37.4489 49.4695 37.6709 49.3519C38.0236 49.3258 39.5387 49.2997 39.7738 49.2997C40.1134 49.2997 40.3877 49.0254 40.3877 48.6858C40.3877 48.3462 40.1134 48.0719 39.7738 48.0719H37.5273C37.2007 48.0719 36.9134 47.7454 36.9134 47.3405C36.9134 47.014 37.1093 46.7266 37.3705 46.6352C37.6056 46.6221 38.5591 46.6221 39.1991 46.6091H39.7868C40.1264 46.6091 40.4007 46.3348 40.4007 45.9952C40.4007 45.6556 40.1264 45.3813 39.7868 45.3813C39.4995 45.3813 38.8726 45.3813 38.2979 45.3944H37.3836C37.2007 45.3944 37.0701 45.303 36.9917 45.2246C36.8481 45.0809 36.7697 44.885 36.7697 44.663C36.7697 44.2711 37.044 43.9315 37.3836 43.9315L39.7346 43.9185C40.0742 43.9185 40.3485 43.6442 40.3485 43.3046C40.3485 42.965 40.0742 42.6907 39.7346 42.6907C39.5387 42.6907 37.3444 42.6907 37.0179 42.6777C36.7436 42.6123 36.613 42.2728 36.613 41.9593C36.613 41.5936 36.7958 41.2279 37.1224 41.2279H42.9346C43.1305 41.2279 43.3134 41.1364 43.4309 40.9666C43.5485 40.8099 43.5746 40.6009 43.5224 40.4181L42.6342 37.7144C42.3468 36.8654 42.2032 36.3299 42.5297 35.9642C42.9607 35.4809 43.5746 35.7944 43.875 36.0034L47.7934 40.8621C48.0807 41.2148 48.4987 41.2148 48.6554 41.2148H50.1444C50.1705 41.2148 50.2358 41.2801 50.2358 41.3715L50.2489 50.5927ZM30.5395 26.0376L28.7501 25.8287L28.0056 24.196C27.9011 23.974 27.6922 23.8303 27.444 23.8303C27.2089 23.8303 26.9868 23.974 26.8824 24.196L26.1379 25.8287L24.3485 26.0376C24.1134 26.0638 23.9044 26.2336 23.8391 26.4556C23.7607 26.6907 23.826 26.9389 24.0089 27.0956L25.3281 28.3103L24.9754 30.0736C24.9232 30.3087 25.0277 30.5568 25.2105 30.6874C25.4064 30.8311 25.6677 30.8442 25.8766 30.7266L27.444 29.8385L29.0113 30.7266C29.1028 30.7789 29.2073 30.805 29.3117 30.805C29.4424 30.805 29.5599 30.7658 29.6775 30.6874C29.8734 30.5438 29.9648 30.3087 29.9256 30.0736L29.573 28.3103L30.8922 27.0956C31.075 26.9389 31.1403 26.6776 31.0619 26.4556C30.9705 26.2205 30.7746 26.0638 30.5395 26.0376ZM28.4628 27.6442C28.306 27.7879 28.2277 28.0099 28.2799 28.2189L28.4366 29.0025L27.7444 28.6107C27.5615 28.5062 27.3264 28.5062 27.1436 28.6107L26.4513 29.0025L26.6081 28.2189C26.6473 28.0099 26.5819 27.7879 26.4252 27.6442L25.8375 27.1087L26.6342 27.0172C26.8432 26.9911 27.0391 26.8605 27.1305 26.6646L27.4571 25.9332L27.7836 26.6646C27.875 26.8605 28.0579 26.9911 28.2799 27.0172L29.0766 27.1087L28.4628 27.6442Z" fill="url(#paint0_linear_1_425)" stroke="url(#paint1_linear_1_425)" stroke-width="4" mask="url(#path-1-inside-1_1_425)"/>
<mask id="path-2-inside-2_1_425" fill="white">
<path d="M32.25 0.851562C41.0924 0.851562 49.0859 4.43034 54.872 10.2295C60.6582 16.0156 64.25 24.0222 64.25 32.8516C64.25 41.681 60.6712 49.6875 54.872 55.4736C49.0859 61.2728 41.0924 64.8516 32.25 64.8516C23.4076 64.8516 15.4141 61.2728 9.62796 55.4736C3.84184 49.6875 0.25 41.694 0.25 32.8516C0.25 24.0091 3.84184 16.0156 9.62796 10.2295C15.4141 4.43034 23.4206 0.851562 32.25 0.851562ZM53.8663 11.2352C48.3414 5.69728 40.7006 2.2883 32.25 2.2883C23.7994 2.2883 16.1716 5.69728 10.6337 11.2352C5.10878 16.7732 1.68673 24.414 1.68673 32.8516C1.68673 41.2891 5.10878 48.9299 10.6467 54.4679C16.1716 60.0058 23.8124 63.4148 32.25 63.4148C40.6875 63.4148 48.3284 59.9928 53.8663 54.4548C59.4043 48.9169 62.8263 41.2761 62.8263 32.8385C62.8263 24.4009 59.4043 16.7732 53.8663 11.2352Z"/>
</mask>
<path d="M32.25 0.851562C41.0924 0.851562 49.0859 4.43034 54.872 10.2295C60.6582 16.0156 64.25 24.0222 64.25 32.8516C64.25 41.681 60.6712 49.6875 54.872 55.4736C49.0859 61.2728 41.0924 64.8516 32.25 64.8516C23.4076 64.8516 15.4141 61.2728 9.62796 55.4736C3.84184 49.6875 0.25 41.694 0.25 32.8516C0.25 24.0091 3.84184 16.0156 9.62796 10.2295C15.4141 4.43034 23.4206 0.851562 32.25 0.851562ZM53.8663 11.2352C48.3414 5.69728 40.7006 2.2883 32.25 2.2883C23.7994 2.2883 16.1716 5.69728 10.6337 11.2352C5.10878 16.7732 1.68673 24.414 1.68673 32.8516C1.68673 41.2891 5.10878 48.9299 10.6467 54.4679C16.1716 60.0058 23.8124 63.4148 32.25 63.4148C40.6875 63.4148 48.3284 59.9928 53.8663 54.4548C59.4043 48.9169 62.8263 41.2761 62.8263 32.8385C62.8263 24.4009 59.4043 16.7732 53.8663 11.2352Z" fill="url(#paint2_linear_1_425)"/>
<path d="M54.872 10.2295L53.4562 11.6421L53.4578 11.6437L54.872 10.2295ZM54.872 55.4736L53.4594 54.0578L53.4562 54.061L54.872 55.4736ZM9.62796 55.4736L11.0438 54.061L11.0422 54.0594L9.62796 55.4736ZM9.62796 10.2295L11.0422 11.6437L11.0438 11.6421L9.62796 10.2295ZM53.8663 11.2352L52.4504 12.6478L52.4521 12.6494L53.8663 11.2352ZM10.6337 11.2352L9.21946 9.82102L9.21779 9.82269L10.6337 11.2352ZM10.6467 54.4679L12.0626 53.0553L12.0609 53.0537L10.6467 54.4679ZM32.25 2.85156C40.5409 2.85156 48.0307 6.20439 53.4562 11.6421L56.2878 8.8169C50.1411 2.65628 41.644 -1.14844 32.25 -1.14844V2.85156ZM53.4578 11.6437C58.8851 17.071 62.25 24.5751 62.25 32.8516H66.25C66.25 23.4693 62.4313 14.9603 56.2863 8.81531L53.4578 11.6437ZM62.25 32.8516C62.25 41.1299 58.8969 48.6326 53.4594 54.0578L56.2847 56.8894C62.4456 50.7423 66.25 42.232 66.25 32.8516H62.25ZM53.4562 54.061C48.0307 59.4987 40.5409 62.8516 32.25 62.8516V66.8516C41.644 66.8516 50.1411 63.0468 56.2878 56.8862L53.4562 54.061ZM32.25 62.8516C23.9591 62.8516 16.4693 59.4987 11.0438 54.061L8.21215 56.8862C14.3589 63.0468 22.856 66.8516 32.25 66.8516V62.8516ZM11.0422 54.0594C5.61461 48.6318 2.25 41.1407 2.25 32.8516H-1.75C-1.75 42.2474 2.06907 50.7431 8.21375 56.8878L11.0422 54.0594ZM2.25 32.8516C2.25 24.5625 5.61461 17.0713 11.0422 11.6437L8.21375 8.81531C2.06907 14.96 -1.75 23.4558 -1.75 32.8516H2.25ZM11.0438 11.6421C16.4689 6.20471 23.9717 2.85156 32.25 2.85156V-1.14844C22.8695 -1.14844 14.3592 2.65597 8.21215 8.8169L11.0438 11.6421ZM55.2822 9.82269C49.3951 3.92163 41.2499 0.288297 32.25 0.288297V4.2883C40.1513 4.2883 47.2878 7.47292 52.4504 12.6478L55.2822 9.82269ZM32.25 0.288297C23.2487 0.288297 15.118 3.92252 9.21946 9.82102L12.0479 12.6494C17.2253 7.47203 24.35 4.2883 32.25 4.2883V0.288297ZM9.21779 9.82269C3.33503 15.7194 -0.313265 23.8619 -0.313265 32.8516H3.68673C3.68673 24.9661 6.88252 17.827 12.0496 12.6478L9.21779 9.82269ZM-0.313265 32.8516C-0.313265 41.8414 3.33526 49.9848 9.23252 55.8821L12.0609 53.0537C6.88229 47.875 3.68673 40.7368 3.68673 32.8516H-0.313265ZM9.23085 55.8804C15.1177 61.7812 23.2627 65.4148 32.25 65.4148V61.4148C24.3622 61.4148 17.2256 58.2305 12.0626 53.0553L9.23085 55.8804ZM32.25 65.4148C41.2399 65.4148 49.3833 61.7663 55.2805 55.869L52.4521 53.0406C47.2734 58.2193 40.1352 61.4148 32.25 61.4148V65.4148ZM55.2805 55.869C61.1778 49.9718 64.8263 41.8284 64.8263 32.8385H60.8263C60.8263 40.7237 57.6308 47.8619 52.4521 53.0406L55.2805 55.869ZM64.8263 32.8385C64.8263 23.8477 61.1771 15.7176 55.2805 9.82102L52.4521 12.6494C57.6314 17.8288 60.8263 24.9542 60.8263 32.8385H64.8263Z" fill="url(#paint3_linear_1_425)" mask="url(#path-2-inside-2_1_425)"/>
<defs>
<linearGradient id="paint0_linear_1_425" x1="21.4076" y1="14.9564" x2="32.607" y2="52.592" gradientUnits="userSpaceOnUse">
<stop stop-color="#00CDF3"/>
<stop offset="1" stop-color="#5987FF"/>
</linearGradient>
<linearGradient id="paint1_linear_1_425" x1="31.8848" y1="12.1797" x2="31.8848" y2="52.8069" gradientUnits="userSpaceOnUse">
<stop stop-color="#45E0FF"/>
<stop offset="1" stop-color="#1D5CFF"/>
</linearGradient>
<linearGradient id="paint2_linear_1_425" x1="32.25" y1="0.851563" x2="32.25" y2="64.8516" gradientUnits="userSpaceOnUse">
<stop stop-color="#45E0FF"/>
<stop offset="1" stop-color="#1D5CFF"/>
</linearGradient>
<linearGradient id="paint3_linear_1_425" x1="32.25" y1="0.851563" x2="32.25" y2="64.8516" gradientUnits="userSpaceOnUse">
<stop stop-color="#45E0FF"/>
<stop offset="1" stop-color="#1D5CFF"/>
</linearGradient>
</defs>
</svg>
