<svg width="67" height="63" viewBox="0 0 67 63" fill="none" xmlns="http://www.w3.org/2000/svg">
<path d="M18.3574 57.8486H14.9724C14.572 57.8486 14.2435 57.5411 14.224 57.1497L14.0831 54.3498C13.8371 54.2644 13.5971 54.1658 13.3617 54.0555L11.244 55.9373C10.9485 56.2007 10.4926 56.1904 10.2106 55.9123L7.81697 53.5641C7.53351 53.286 7.52302 52.8402 7.79148 52.5503L9.7097 50.4728C9.59722 50.2418 9.49823 50.0049 9.40974 49.7651L6.55566 49.6268C6.15671 49.6077 5.84326 49.284 5.84326 48.8926V45.5718C5.84326 45.179 6.15671 44.8568 6.55566 44.8376L9.40974 44.6993C9.49673 44.458 9.59722 44.2226 9.7097 43.9916L7.79148 41.9141C7.52302 41.6228 7.53501 41.177 7.81697 40.9003L10.2106 38.5521C10.4941 38.2755 10.9485 38.2637 11.244 38.5271L13.3617 40.4089C13.5971 40.2986 13.8386 40.2015 14.0831 40.1147L14.224 37.3147C14.2435 36.9233 14.5735 36.6158 14.9724 36.6158H18.3574C18.7579 36.6158 19.0863 36.9233 19.1058 37.3147L19.2468 40.1147C19.4928 40.2 19.7327 40.2986 19.9682 40.4089L22.0859 38.5271C22.3829 38.2637 22.8373 38.274 23.1193 38.5521L25.5129 40.9003C25.7949 41.177 25.8069 41.6242 25.5384 41.9141L23.6202 43.9916C23.7327 44.2226 23.8316 44.4595 23.9201 44.6993L26.7742 44.8376C27.1732 44.8568 27.4866 45.1804 27.4866 45.5718V48.8926C27.4866 49.2854 27.1732 49.6077 26.7742 49.6268L23.9201 49.7651C23.8331 50.0064 23.7327 50.2418 23.6202 50.4728L25.5384 52.5503C25.8069 52.8417 25.7949 53.2875 25.5129 53.5641L23.1193 55.9123C22.8373 56.1904 22.3814 56.2007 22.0859 55.9373L19.9682 54.0555C19.7327 54.1658 19.4913 54.263 19.2468 54.3498L19.1058 57.1497C19.0863 57.5411 18.7564 57.8486 18.3574 57.8486ZM15.6863 56.3773H17.6435L17.7755 53.7656C17.792 53.4493 18.0125 53.1771 18.3244 53.0933C18.8089 52.9608 19.2783 52.771 19.7177 52.5268C19.9997 52.3708 20.3507 52.4091 20.5906 52.621L22.5658 54.3762L23.9501 53.0182L22.1609 51.0805C21.9434 50.8451 21.9044 50.4993 22.0649 50.2242C22.3139 49.7931 22.5088 49.334 22.6423 48.8573C22.7278 48.5513 23.0053 48.335 23.3277 48.3188L25.9883 48.1893V46.2722L23.3277 46.1427C23.0053 46.1265 22.7278 45.9102 22.6423 45.6042C22.5073 45.1289 22.3139 44.6684 22.0649 44.2373C21.9059 43.9607 21.9449 43.6164 22.1609 43.381L23.9501 41.4433L22.5658 40.0852L20.5906 41.8405C20.3507 42.0539 19.9982 42.0921 19.7177 41.9347C19.2783 41.6904 18.8104 41.5006 18.3244 41.3682C18.0125 41.2829 17.792 41.0122 17.7755 40.6958L17.6435 38.0842H15.6863L15.5543 40.6958C15.5379 41.0122 15.3174 41.2844 15.0054 41.3682C14.521 41.5006 14.0516 41.6904 13.6121 41.9347C13.3302 42.0907 12.9792 42.0524 12.7393 41.8405L10.764 40.0852L9.37975 41.4433L11.169 43.381C11.3865 43.6164 11.4254 43.9622 11.265 44.2373C11.016 44.6684 10.8225 45.1275 10.6876 45.6042C10.6006 45.9102 10.3246 46.1265 10.0022 46.1427L7.34154 46.2722V48.1923L10.0037 48.3217C10.3261 48.3379 10.6036 48.5542 10.6891 48.8602C10.824 49.3355 11.0175 49.796 11.2665 50.2271C11.4255 50.5037 11.3865 50.848 11.1705 51.0834L9.38125 53.0212L10.7655 54.3792L12.7408 52.6239C12.9807 52.4106 13.3332 52.3723 13.6136 52.5297C14.0531 52.774 14.5225 52.9652 15.0069 53.0962C15.3189 53.1815 15.5394 53.4523 15.5559 53.7686L15.6863 56.3773ZM16.6642 51.5116C14.2585 51.5116 12.3013 49.5915 12.3013 47.2315C12.3013 44.8715 14.2585 42.9514 16.6642 42.9514C19.0698 42.9514 21.0271 44.8715 21.0271 47.2315C21.0271 49.5915 19.0713 51.5116 16.6642 51.5116ZM16.6642 44.4227C15.0849 44.4227 13.8011 45.6836 13.8011 47.2315C13.8011 48.7793 15.0864 50.0402 16.6642 50.0402C18.242 50.0402 19.5273 48.7793 19.5273 47.2315C19.5273 45.6836 18.2435 44.4227 16.6642 44.4227ZM41.0686 60.3881C41.0102 60.3881 40.9517 60.3807 40.8947 60.3675C36.8333 59.417 33.1123 57.3204 29.8383 54.135C29.5443 53.8495 29.5413 53.3831 29.8338 53.0947C30.1247 52.8063 30.6002 52.8034 30.8941 53.0903C33.9237 56.0359 37.3447 57.9884 41.0686 58.8947C51.6556 56.3184 57.6547 45.7719 60.8268 37.3515C63.7094 29.6991 64.8447 22.3719 65.1581 19.9869C59.8804 19.8221 55.4081 16.7014 52.182 10.9132C50.3598 7.64243 49.4014 4.38343 48.9995 2.7635C44.6996 5.11615 37.4392 5.11615 33.1393 2.7635C32.7359 4.38343 31.779 7.64243 29.9553 10.9132C26.7292 16.7014 22.2569 19.8221 16.9791 19.9869C17.2236 21.8407 17.96 26.6785 19.6248 32.3107C19.7402 32.7006 19.5108 33.1097 19.1133 33.223C18.7159 33.3362 18.299 33.1111 18.185 32.7212C16.0208 25.3999 15.3954 19.3851 15.3879 19.3262C15.3669 19.1158 15.4389 18.9069 15.5858 18.751C15.7328 18.5965 15.9428 18.5126 16.1573 18.517C21.273 18.6671 25.4664 15.8819 28.622 10.2378C31.0321 5.92538 31.8915 1.4908 31.9005 1.44519C31.947 1.19653 32.1209 0.989075 32.3609 0.896382C32.5994 0.803688 32.8708 0.836057 33.0793 0.984661C36.9622 3.75665 45.175 3.75665 49.058 0.984661C49.2665 0.836057 49.5379 0.802217 49.7764 0.896382C50.0163 0.990547 50.1888 1.198 50.2353 1.44519C50.2443 1.48933 51.1037 5.92391 53.5138 10.2364C56.6694 15.8804 60.8583 18.6671 65.9785 18.5155C66.1945 18.5097 66.4015 18.595 66.5484 18.7495C66.6954 18.904 66.7674 19.1144 66.7464 19.3248C66.7374 19.4145 65.7986 28.3793 62.2411 37.8341C60.1429 43.4119 57.5542 48.076 54.5487 51.697C50.7497 56.2728 46.2729 59.1904 41.2396 60.3675C41.1856 60.3807 41.1271 60.3881 41.0686 60.3881ZM41.0686 56.3625C40.9967 56.3625 40.9232 56.3522 40.8542 56.3316C37.2622 55.2782 33.9852 53.0727 31.1131 49.7769C30.8446 49.4679 30.8806 49.003 31.1956 48.7396C31.5105 48.4762 31.9845 48.5115 32.2529 48.8205C34.876 51.8308 37.8411 53.8613 41.0686 54.8574C42.7619 54.335 44.3892 53.5288 45.9069 52.4576C48.764 50.4434 51.3572 47.433 53.6143 43.5105C56.191 39.0332 58.2666 33.5363 59.7844 27.1728C60.1279 25.7295 60.4128 24.4185 60.6468 23.1855C55.831 21.7657 51.7126 18.1816 48.7025 12.7803C47.8687 11.284 47.0873 9.58311 46.4244 7.82487C42.9824 8.6238 39.1504 8.6238 35.7084 7.82487C35.047 9.58164 34.2641 11.2825 33.4303 12.7803C30.4202 18.1816 26.3018 21.7642 21.486 23.1855C21.72 24.4156 22.0034 25.7251 22.3469 27.1655C22.8928 29.4519 23.5182 31.6575 24.2081 33.7188C24.3371 34.1043 24.1226 34.5207 23.7297 34.6472C23.3367 34.7737 22.9123 34.5633 22.7833 34.1778C22.0799 32.0753 21.441 29.8301 20.8861 27.501C20.4751 25.7751 20.1467 24.2317 19.8872 22.7853C19.8182 22.4057 20.0597 22.0394 20.4406 21.9437C26.3693 20.4621 30.0602 15.7597 32.1149 12.0741C33.0103 10.4659 33.8442 8.61056 34.5266 6.70372C34.6571 6.3403 35.0515 6.13578 35.431 6.23731C38.96 7.17896 43.1743 7.17896 46.7033 6.23731C47.0828 6.13578 47.4772 6.33883 47.6077 6.70372C48.2901 8.60909 49.124 10.4659 50.0193 12.0741C52.0725 15.7583 55.765 20.4621 61.6936 21.9437C62.0746 22.0394 62.3161 22.4057 62.2471 22.7853C61.9861 24.2346 61.6577 25.781 61.2452 27.5098C59.6944 34.0086 57.5677 39.6365 54.9206 44.2359C52.5555 48.3467 49.8169 51.516 46.7813 53.6553C45.0626 54.8677 43.2118 55.7681 41.2816 56.3346C41.2141 56.3522 41.1406 56.3625 41.0686 56.3625ZM36.8573 42.0862C36.6653 42.0862 36.4733 42.0141 36.3263 41.8714L27.7611 33.4687C27.4686 33.1818 27.4686 32.7153 27.7611 32.4284L31.2901 28.9664C31.431 28.8281 31.6215 28.7516 31.821 28.7516C32.0205 28.7516 32.2109 28.8296 32.3519 28.9664L36.8573 33.3863L49.7854 20.7034C49.9264 20.5651 50.1168 20.4886 50.3163 20.4886C50.5158 20.4886 50.7062 20.5666 50.8472 20.7034L54.3762 24.1654C54.6687 24.4524 54.6687 24.9188 54.3762 25.2057L37.3882 41.8714C37.2412 42.0141 37.0492 42.0862 36.8573 42.0862ZM29.3523 32.9493L36.8573 40.3118L52.7849 24.6863L50.3163 22.2645L37.3882 34.9473C37.2472 35.0857 37.0567 35.1622 36.8573 35.1622C36.6578 35.1622 36.4673 35.0842 36.3263 34.9473L31.821 30.5275L29.3523 32.9493ZM16.6642 62.8438C7.88896 62.8438 0.75 55.8402 0.75 47.2315C0.75 38.6227 7.88896 31.6192 16.6642 31.6192C25.4394 31.6192 32.5784 38.6227 32.5784 47.2315C32.5784 55.8402 25.4409 62.8438 16.6642 62.8438ZM16.6642 33.0905C8.71534 33.0905 2.24978 39.4349 2.24978 47.2315C2.24978 55.028 8.71684 61.3724 16.6642 61.3724C24.6115 61.3724 31.0786 55.028 31.0786 47.2315C31.0786 39.4349 24.613 33.0905 16.6642 33.0905Z" fill="url(#paint0_linear_1_438)"/>
<defs>
<linearGradient id="paint0_linear_1_438" x1="33.75" y1="0.84375" x2="33.75" y2="62.8438" gradientUnits="userSpaceOnUse">
<stop stop-color="#45E0FF"/>
<stop offset="1" stop-color="#1D5CFF"/>
</linearGradient>
</defs>
</svg>
